<?xml version="1.0" encoding="UTF-8" standalone="no"?>
<!DOCTYPE svg PUBLIC "-//W3C//DTD SVG 1.1//EN" "http://www.w3.org/Graphics/SVG/1.1/DTD/svg11.dtd">
<svg width="100%" height="100%" viewBox="0 0 3578 1251" version="1.1" xmlns="http://www.w3.org/2000/svg" xmlns:xlink="http://www.w3.org/1999/xlink" xml:space="preserve" xmlns:serif="http://www.serif.com/" style="fill-rule:evenodd;clip-rule:evenodd;stroke-linejoin:round;stroke-miterlimit:2;">
    <g transform="matrix(1,0,0,1,-554.205,-709.688)">
        <g>
            <g transform="matrix(4.16667,0,0,4.16667,553.705,750.625)">
                <path d="M54.156,215.322L78.07,215.322C83.509,215.322 87.191,214.296 89.113,212.215C90.074,211.224 90.554,209.686 90.616,207.637C90.68,206.804 90.714,205.237 90.714,202.838L90.714,196.853C90.714,192.081 90.616,189.17 90.427,188.017C89.946,184.784 88.534,182.831 86.2,182.222C85.399,181.965 83.125,181.841 79.379,181.841L54.156,181.841L54.156,215.322ZM54.156,160.741L80.693,160.741C84.984,160.806 87.866,159.686 89.303,157.35C90.232,155.876 90.714,152.867 90.714,148.353L90.714,143.197C90.714,138.012 90.136,134.393 89.015,132.411C87.767,130.393 85.399,129.434 81.908,129.497L54.156,129.497L54.156,160.741ZM107.327,170.12C116.196,170.183 122.146,170.762 125.124,171.915C129.576,173.323 132.809,175.658 134.858,178.89C136.874,182.094 137.898,186.575 137.898,192.243L137.898,209.881C137.706,218.873 135.02,225.631 129.833,230.143C126.437,233.087 121.86,234.979 116.033,235.839C113.666,236.227 109.601,236.416 103.84,236.416L0.12,236.416C3.449,231.969 5.207,225.662 5.466,217.468L5.466,127.352C5.207,119.157 3.449,112.85 0.12,108.402L103.84,108.402C112.16,108.402 118.498,109.106 122.886,110.548C132.647,114.195 137.642,122.329 137.898,134.939L137.898,147.713C137.898,152.388 137.419,155.942 136.49,158.406C134.793,163.013 130.311,166.249 122.981,168.042C119.973,168.81 114.752,169.482 107.327,170.12" style="fill:white;fill-rule:nonzero;"/>
            </g>
            <g transform="matrix(4.16667,0,0,4.16667,553.705,750.625)">
                <path d="M341.11,160.742L368.317,160.742C372.481,160.742 375.296,159.94 376.739,158.308C377.799,156.677 378.342,153.763 378.342,149.57L378.342,143.198C378.342,137.117 377.799,133.338 376.739,131.837C375.296,130.202 372.064,129.434 367.007,129.496L341.11,129.496L341.11,160.742ZM356.125,181.84L341.11,181.84L341.11,217.468C341.364,225.791 343.126,232.096 346.456,236.416L287.069,236.416C290.401,231.97 292.161,225.662 292.417,217.468L292.417,127.353C292.161,119.157 290.401,112.851 287.069,108.402L392.393,108.402C400.65,108.402 407.021,109.105 411.439,110.548C421.197,114.195 426.195,122.33 426.456,134.939L426.456,162.535C426.456,168.323 425.713,172.556 424.215,175.179C421.522,179.757 417.166,182.03 411.157,182.03C410.222,182.03 409.037,181.965 407.598,181.84L425.139,218.971C428.215,225.662 431.479,231.488 435.003,236.416L378.723,236.416L356.125,181.84Z" style="fill:white;fill-rule:nonzero;"/>
            </g>
            <g transform="matrix(4.16667,0,0,4.16667,553.705,750.625)">
                <path d="M552.035,108.402L556.514,134.748C553.543,132.636 550.437,131.195 547.234,130.427C544.128,129.818 539.23,129.496 532.599,129.496L505.782,129.496C501.489,129.496 498.667,129.753 497.361,130.235C494.097,131.258 492.203,134.106 491.63,138.781C491.561,139.422 491.529,141.728 491.529,145.728L491.529,200.022C491.529,206.167 492.94,210.458 495.758,212.89C497.392,214.139 499.443,214.872 501.934,215.13C503.439,215.257 505.553,215.322 508.305,215.322L533.625,215.322C543.329,215.384 551.493,214.041 558.12,211.287L554.18,236.416L475.586,236.416C464.959,236.289 456.673,232.833 450.719,226.016C448.412,223.451 446.715,220.987 445.659,218.588C444.605,216.217 443.837,213.208 443.421,209.591C443.038,206.582 442.84,203.319 442.84,199.764L442.84,145.054C442.84,137.755 443.483,132.251 444.731,128.57C445.721,125.498 447.518,122.455 450.077,119.482C452.634,116.468 455.481,114.132 458.588,112.436C463.425,109.745 469.091,108.402 475.586,108.402L552.035,108.402Z" style="fill:white;fill-rule:nonzero;"/>
            </g>
            <g transform="matrix(4.16667,0,0,4.16667,553.705,433.913)">
                <path d="M214.616,246.252L244.852,231.541L255,266.168L214.616,246.252ZM170.882,267.529L210.099,248.449L248.79,267.529L170.882,267.529ZM175.987,231.626L205.595,246.227L165.543,265.713L175.987,231.626ZM217.968,139.824L204.115,139.824L211.194,116.718L217.968,139.824ZM185.69,199.962L206.092,210.586L177.957,225.198L185.69,199.962ZM194.12,172.447L206.682,180.428L188.027,192.329L194.12,172.447ZM210.719,148.47L206.335,143.793L215.283,143.793L210.719,148.47ZM214.072,180.423L227.38,171.933L233.484,192.758L214.072,180.423ZM235.537,199.764L243.036,225.349L214.692,210.59L235.537,199.764ZM228.376,199.012L210.394,208.351L192.46,199.012L228.376,199.012ZM210.379,182.778L229.68,195.043L191.153,195.043L210.379,182.778ZM197.762,167.434L210.661,154.211L223.053,167.434L197.762,167.434ZM220.832,171.403L210.374,178.075L199.877,171.403L220.832,171.403ZM219.523,145.129L224.953,163.659L213.436,151.369L219.523,145.129ZM202.406,145.403L207.945,151.313L197.229,162.297L202.406,145.403ZM237.034,230.933L210.112,244.029L183.55,230.933L237.034,230.933ZM183.166,226.962L210.39,212.825L237.54,226.962L183.166,226.962ZM268.56,312.428L272.696,312.428L213.276,109.708C213.19,109.415 212.986,109.169 212.714,109.029L211.927,108.626C211.494,108.402 210.978,108.401 210.542,108.62L209.766,109.009C209.493,109.147 209.288,109.389 209.198,109.681L147.078,312.428L151.23,312.428L163.77,271.498L256.564,271.498L268.56,312.428Z" style="fill:white;fill-rule:nonzero;"/>
            </g>
            <g transform="matrix(4.16667,0,0,4.16667,553.705,-657.708)">
                <path d="M195.854,350.337L194.637,349.001L193.485,347.568L192.357,346.223L191.294,344.78L186.798,339.07L185.816,337.552L184.869,335.988L182.957,332.777L181.926,331.282L180.709,329.807L179.32,328.474L177.836,328.175L177.394,328.231L176.878,328.206L176.463,328.467L176.119,328.834L175.818,329.489L176.047,329.86L176.21,330.243L176.389,330.534L176.492,330.905L177.04,331.555L177.85,332.066L179.272,334.364L180.957,336.781L182.802,339.096L184.748,341.479L186.715,343.735L188.609,346.083L190.481,348.345L192.239,350.818L192.697,351.228L193.432,352.441L193.782,353.128L194.171,353.705L194.612,354.176L195.257,354.516L196.204,354.643L196.913,353.857L197.239,353.132L197.28,352.407L197.135,351.838L195.854,350.337Z" style="fill:white;fill-rule:nonzero;"/>
            </g>
            <g transform="matrix(4.16667,0,0,4.16667,553.705,-426.104)">
                <path d="M185.728,314.703L185.57,314.349L181.75,313.535L178.033,313.056L174.185,312.68L170.403,312.462L166.495,312.188L162.657,311.966L158.823,311.597L155.066,311.061L154.561,311.106L153.67,311.525L153.081,312.194L152.965,312.628L152.956,313.041L153.269,313.591L157.903,314.306L162.696,314.698L165.088,314.844L167.476,315.036L169.794,315.285L172.149,315.694L173.863,315.456L175.616,315.431L177.303,315.563L179.009,315.855L180.652,316.039L182.307,316.172L183.973,316.147L185.881,315.884L185.792,315.409L185.799,315.061L185.728,314.703Z" style="fill:white;fill-rule:nonzero;"/>
            </g>
            <g transform="matrix(4.16667,0,0,4.16667,553.705,-578.992)">
                <path d="M146.207,325.841L150.266,328.341L152.309,329.516L154.355,330.87L156.334,332.249L158.173,333.852L159.583,334.293L160.705,335.018L161.824,335.821L162.775,336.82L163.81,337.727L164.818,338.694L165.883,339.529L167.286,340.364L168.029,339.306L168.199,338.425L167.905,337.527L167.287,336.697L165.924,334.999L165.409,334.128L165.264,333.431L165.757,333.046L167.753,334.046L172.058,336.414L174.163,337.73L182.776,342.794L183.721,343.073L184.256,343.122L184.838,343.27L185.415,343.24L185.926,343.249L186.425,343.13L187.177,342.992L185.864,341.534L183.01,339.915L180.309,338.337L174.962,334.887L172.302,333.09L169.595,331.512L166.82,329.968L163.965,328.684L163.174,328.253L162.393,327.746L161.015,326.544L160.292,325.827L159.518,325.331L158.664,324.934L157.586,324.803L157.009,325.449L156.865,326.158L157.475,327.329L157.925,327.809L158.242,328.324L158.411,328.864L158.306,329.243L156.907,328.777L156.189,328.419L155.504,328.156L154.242,327.226L153.05,326.189L151.76,325.585L150.671,324.981L148.692,323.6L147.733,322.765L145.604,321.266L144.396,320.733L143.732,320.656L142.86,320.994L142.418,321.413L142.152,321.706L141.947,322.228L141.921,322.669L142.155,323.189L146.207,325.841Z" style="fill:white;fill-rule:nonzero;"/>
            </g>
            <g transform="matrix(4.16667,0,0,4.16667,553.705,-295.104)">
                <path d="M135.432,303.859L135.71,304.353L136.316,304.871L137.676,304.754L138.21,304.656L138.904,304.656L141.609,303.706L149.946,301.204L155.38,299.427L158.033,298.49L160.743,297.499L161.09,297.181L161.879,296.99L162.468,296.989L163.413,296.884L163.831,296.633L164.176,296.349L166.991,295.622L169.71,294.682L171.029,294.164L172.426,293.693L173.734,293.176L175.273,292.736L175.985,291.102L173.847,290.922L172.119,291.137L170.461,291.561L168.819,292.136L165.482,293.382L163.849,293.901L162.206,294.319L159.421,295.102L156.711,295.989L153.927,296.823L151.22,297.709L148.439,298.543L140.328,301.197L139.014,301.404L138.285,301.461L137.739,301.614L137.005,301.726L136.424,301.943L135.86,302.2L135.367,302.778L135.367,303.34L135.432,303.859Z" style="fill:white;fill-rule:nonzero;"/>
            </g>
            <g transform="matrix(4.16667,0,0,4.16667,553.705,-152.125)">
                <path d="M186.554,262.892L186.491,262.885L183.912,264.322L181.4,265.624L178.809,266.819L176.225,268.07L173.567,269.221L170.979,270.528L168.44,271.837L166.068,273.281L164.354,274.018L161.065,275.585L159.557,276.419L154.818,278.765L153.015,279.718L153.697,280.422L154.429,280.871L155.306,281.105L156.285,281.315L157.221,281.367L158.159,281.469L159.075,281.617L159.647,281.808L157.144,283.462L154.252,285.177L151.219,286.741L148.199,288.354L145.095,289.819L142.124,291.437L139.147,293.114L136.42,294.955L135.845,294.955L135.472,295.26L135.212,295.727L135.216,296.756L135.34,297.288L135.34,298.593L136.766,297.607L137.972,296.876L139.094,296.151L140.238,295.524L141.365,294.848L142.549,294.231L143.855,293.667L145.305,293.245L145.982,292.707L147.584,291.994L148.557,291.668L149.37,291.255L150.283,290.823L151.123,290.234L151.863,289.573L153.851,288.599L155.941,287.657L157.952,286.668L160.041,285.729L162.062,284.736L168.401,281.694L168.027,280.642L167.478,280.055L166.543,279.731L165.648,279.628L163.583,279.526L162.607,279.376L161.933,279.147L161.81,278.842L161.944,278.585L162.279,278.259L162.694,277.958L164.327,277.132L166.039,276.346L167.733,275.511L169.515,274.724L172.799,272.95L175.96,271.175L177.089,270.503L178.293,269.872L179.485,269.2L180.689,268.57L181.803,267.956L184.23,267.027L185.557,266.769L185.991,266.434L186.579,266.109L187.588,265.375L188.352,264.411L188.427,263.807L188.263,263.118L186.554,262.892Z" style="fill:white;fill-rule:nonzero;"/>
            </g>
            <g transform="matrix(4.16667,0,0,4.16667,553.705,-657.708)">
                <path d="M238.239,341.474L240.185,339.093L242.034,336.77L243.72,334.355L245.134,332.066L245.904,331.588L246.457,330.976L246.599,330.531L246.788,330.217L246.925,329.886L247.169,329.489L246.9,328.886L246.562,328.502L246.106,328.206L245.625,328.231L245.149,328.175L243.666,328.474L242.259,329.824L241.049,331.294L240.022,332.789L239.06,334.425L237.173,337.547L236.198,339.054L231.689,344.784L230.634,346.214L229.497,347.572L228.355,348.992L227.129,350.338L225.892,351.759L225.707,352.406L225.73,353.067L226.04,353.809L226.779,354.643L227.663,354.536L228.32,354.215L228.834,353.678L229.213,353.108L229.545,352.453L230.29,351.227L230.775,350.786L232.498,348.356L234.377,346.081L236.264,343.742L238.239,341.474Z" style="fill:white;fill-rule:nonzero;"/>
            </g>
            <g transform="matrix(4.16667,0,0,4.16667,553.705,-426.104)">
                <path d="M239.033,316.149L240.696,316.17L242.34,316.04L243.988,315.853L245.668,315.565L247.351,315.433L249.094,315.454L250.806,315.691L250.835,315.694L253.177,315.287L255.503,315.037L257.895,314.844L260.292,314.698L265.094,314.304L269.718,313.592L270.03,313.04L270.015,312.59L269.945,312.276L269.385,311.577L268.878,311.326L268.497,311.128L267.871,311.063L264.17,311.595L260.335,311.966L256.487,312.189L252.583,312.462L248.792,312.681L244.944,313.056L241.215,313.54L237.512,314.327L237.416,314.347L237.242,314.749L237.184,315.102L237.195,315.371L237.104,315.883L239.033,316.149Z" style="fill:white;fill-rule:nonzero;"/>
            </g>
            <g transform="matrix(4.16667,0,0,4.16667,553.705,-577.379)">
                <path d="M239.907,339.577L237.151,341.132L235.809,342.605L236.54,342.743L237.017,342.862L237.532,342.852L238.111,342.883L238.659,342.743L239.25,342.683L240.183,342.391L248.608,337.438L250.664,336.153L254.897,333.824L256.862,332.836L257.342,333.213L257.198,333.896L256.707,334.73L255.353,336.418L254.777,337.181L254.457,338.115L254.59,338.908L255.357,340.029L256.764,339.194L257.803,338.369L258.767,337.44L259.808,336.532L260.699,335.585L261.821,334.779L262.929,334.06L264.245,333.67L266.104,332.066L268.062,330.698L270.067,329.378L272.092,328.206L276.077,325.756L280.056,323.15L280.285,322.637L280.275,322.261L280.094,321.747L279.429,321.031L278.504,320.656L277.909,320.714L276.632,321.272L274.556,322.742L273.644,323.537L271.698,324.897L270.628,325.496L269.391,326.061L268.186,327.101L266.931,328.027L266.245,328.289L265.582,328.625L264.183,329.095L264.081,328.728L264.229,328.241L264.539,327.725L264.974,327.258L265.603,326.061L265.459,325.368L264.89,324.727L263.89,324.842L262.966,325.265L262.2,325.763L261.528,326.43L260.181,327.607L259.409,328.115L258.633,328.54L255.802,329.81L253.086,331.325L250.416,332.885L247.818,334.636L242.569,338.024L239.907,339.577Z" style="fill:white;fill-rule:nonzero;"/>
            </g>
            <g transform="matrix(4.16667,0,0,4.16667,553.705,-295.108)">
                <path d="M271.769,297.712L269.05,296.822L266.278,295.992L263.558,295.102L260.774,294.318L259.144,293.905L257.513,293.386L254.164,292.137L252.508,291.557L250.841,291.133L249.1,290.922L247.002,291.104L247.714,292.736L249.233,293.171L250.567,293.698L251.946,294.162L253.281,294.686L256.01,295.628L258.809,296.35L259.17,296.647L259.484,296.853L260.537,296.991L261.061,296.985L261.894,297.181L262.171,297.456L264.956,298.491L267.612,299.429L273.042,301.206L281.362,303.704L284.018,304.644L284.049,304.656L284.741,304.652L285.328,304.757L286.67,304.872L287.234,304.403L287.526,303.935L287.619,303.316L287.619,302.78L287.192,302.255L286.543,301.94L285.942,301.717L285.264,301.619L284.665,301.457L283.981,301.407L282.691,301.205L274.543,298.542L271.769,297.712Z" style="fill:white;fill-rule:nonzero;"/>
            </g>
            <g transform="matrix(4.16667,0,0,4.16667,553.705,-152.133)">
                <path d="M287.77,295.776L287.559,295.323L287.148,294.957L286.569,294.957L283.826,293.108L280.855,291.437L277.878,289.815L274.796,288.36L271.763,286.743L268.744,285.185L265.85,283.469L263.336,281.807L263.879,281.626L264.817,281.473L265.754,281.369L266.73,281.313L267.684,281.104L268.504,280.894L269.25,280.457L269.972,279.72L268.163,278.765L263.437,276.424L261.912,275.582L258.623,274.016L256.943,273.295L254.531,271.833L252.004,270.528L249.41,269.218L246.763,268.079L244.175,266.821L241.593,265.629L239.074,264.326L236.549,262.917L236.493,262.887L234.722,263.12L234.56,263.806L234.629,264.413L235.36,265.342L236.429,266.123L236.965,266.415L237.343,266.729L238.724,267.02L241.159,267.948L242.298,268.573L243.494,269.198L244.699,269.878L245.887,270.501L247.03,271.178L250.186,272.954L253.482,274.732L255.241,275.511L256.952,276.351L258.65,277.13L260.264,277.945L260.685,278.244L261.043,278.587L261.178,278.844L261.054,279.149L260.41,279.372L259.423,279.526L257.324,279.63L256.404,279.742L255.584,280.008L255.001,280.575L254.581,281.696L258.905,283.75L262.948,285.734L265.026,286.666L267.053,287.663L269.129,288.597L271.124,289.575L271.881,290.251L272.728,290.842L274.455,291.68L275.382,291.99L276.998,292.709L277.613,293.213L279.109,293.661L280.424,294.227L281.611,294.844L282.756,295.529L283.881,296.147L285.022,296.88L286.206,297.603L287.645,298.593L287.641,297.332L287.77,296.717L287.77,295.776Z" style="fill:white;fill-rule:nonzero;"/>
            </g>
            <g transform="matrix(4.16667,0,0,4.16667,463.244,-344.272)">
                <g transform="matrix(1,0,0,1,460.738,514.216)">
                    <path d="M145.847,37.948L138.579,37.948L138.579,0.819L147.402,0.819C150.206,0.819 152.295,0.915 153.662,1.112C155.027,1.307 156.194,1.629 157.168,2.071C159.275,3.056 160.885,4.43 161.99,6.196C163.096,7.963 163.644,10.036 163.644,12.42C163.644,15.292 162.852,17.73 161.267,19.722C159.692,21.723 157.543,22.995 154.819,23.535L164.106,37.948L155.429,37.948L145.847,20.705L145.847,37.948ZM145.847,18.87L147.455,18.87C150.39,18.87 152.625,18.339 154.149,17.275C155.671,16.217 156.429,14.665 156.429,12.619C156.429,10.652 155.794,9.201 154.514,8.26C153.243,7.328 151.25,6.858 148.546,6.858L145.847,6.858L145.847,18.87Z" style="fill:white;fill-rule:nonzero;"/>
                </g>
                <g transform="matrix(1,0,0,1,460.738,514.215)">
                    <path d="M173.663,30.168L170.783,37.949L163.253,37.949L177.666,0.819L183.931,0.819L198.137,37.949L190.357,37.949L187.432,30.168L173.663,30.168ZM185.03,23.285L180.643,11.323L176.16,23.285L185.03,23.285Z" style="fill:white;fill-rule:nonzero;"/>
                </g>
                <g transform="matrix(1,0,0,1,460.738,514.216)">
                    <path d="M212.342,37.948L199.722,37.948L199.722,0.819L212.141,0.819C215.51,0.819 218.201,1.158 220.225,1.837C222.247,2.517 224.081,3.653 225.738,5.255C227.486,6.954 228.807,9.008 229.716,11.429C230.613,13.839 231.064,16.555 231.064,19.568C231.064,22.924 230.436,25.937 229.173,28.603C227.92,31.264 226.095,33.451 223.691,35.172C222.333,36.174 220.811,36.885 219.131,37.313C217.441,37.741 215.189,37.948 212.342,37.948M211.887,31.576C215.908,31.576 218.878,30.594 220.785,28.617C222.69,26.649 223.638,23.561 223.638,19.358C223.638,15.5 222.595,12.501 220.515,10.355C218.435,8.216 215.516,7.146 211.788,7.146L207.042,7.146L207.042,31.576L211.887,31.576Z" style="fill:white;fill-rule:nonzero;"/>
                </g>
                <g transform="matrix(1,0,0,1,460.738,514.216)">
                    <rect x="235.538" y="0.819" width="7.268" height="37.13" style="fill:white;"/>
                </g>
                <g transform="matrix(1,0,0,1,460.738,514.218)">
                    <path d="M247.375,19.304C247.375,17.266 247.645,15.343 248.194,13.53C248.733,11.724 249.542,10.025 250.615,8.44C252.45,5.77 254.756,3.715 257.524,2.259C260.292,0.807 263.319,0.077 266.601,0.077C269.067,0.077 271.442,0.556 273.728,1.501C276.021,2.451 278.065,3.83 279.868,5.611C281.722,7.469 283.131,9.545 284.096,11.863C285.064,14.17 285.553,16.605 285.553,19.155C285.553,21.804 285.096,24.301 284.181,26.622C283.282,28.954 281.936,31.015 280.17,32.822C278.384,34.708 276.305,36.152 273.929,37.17C271.56,38.184 269.08,38.688 266.497,38.688C263.731,38.688 261.177,38.189 258.846,37.207C256.521,36.224 254.459,34.759 252.651,32.822C250.916,30.985 249.603,28.921 248.714,26.642C247.821,24.352 247.375,21.903 247.375,19.304M255.001,19.05C255.001,20.652 255.261,22.142 255.793,23.516C256.312,24.89 257.097,26.155 258.134,27.295C259.272,28.533 260.568,29.486 262.013,30.156C263.457,30.828 264.956,31.166 266.497,31.166C269.752,31.166 272.478,30.009 274.679,27.697C276.883,25.388 277.978,22.507 277.978,19.05C277.978,15.883 276.871,13.184 274.653,10.947C272.431,8.709 269.77,7.595 266.655,7.595C263.406,7.595 260.658,8.709 258.394,10.938C256.128,13.165 255.001,15.875 255.001,19.05" style="fill:white;fill-rule:nonzero;"/>
                </g>
                <g transform="matrix(1,0,0,1,460.738,514.218)">
                    <path d="M340.203,11.825L331.319,11.825C330.269,10.399 329.018,9.329 327.561,8.615C326.105,7.9 324.458,7.546 322.603,7.546C321.102,7.546 319.687,7.822 318.348,8.386C316.997,8.944 315.811,9.764 314.766,10.833C313.67,11.955 312.806,13.254 312.208,14.726C311.605,16.195 311.308,17.702 311.308,19.251C311.308,22.654 312.405,25.5 314.583,27.806C316.77,30.113 319.444,31.262 322.608,31.262C324.43,31.262 326.069,30.922 327.52,30.244C328.972,29.564 330.145,28.573 331.053,27.284L339.947,27.284C338.216,31.08 335.902,33.923 333.013,35.833C330.117,37.739 326.667,38.687 322.653,38.687C319.868,38.687 317.303,38.147 314.942,37.077C312.587,36.006 310.478,34.424 308.607,32.305C307.018,30.557 305.817,28.564 305.008,26.328C304.192,24.098 303.78,21.705 303.78,19.154C303.78,16.57 304.28,14.115 305.264,11.793C306.251,9.476 307.694,7.362 309.596,5.457C311.402,3.686 313.4,2.349 315.602,1.445C317.806,0.529 320.175,0.078 322.707,0.078C326.772,0.078 330.247,1.043 333.122,2.985C336.008,4.915 338.364,7.868 340.203,11.825" style="fill:white;fill-rule:nonzero;"/>
                </g>
                <g transform="matrix(1,0,0,1,460.738,514.216)">
                    <path d="M363.434,37.948L344.586,37.948L344.586,0.819L351.778,0.819L351.778,31.421L363.434,31.421L363.434,37.948Z" style="fill:white;fill-rule:nonzero;"/>
                </g>
                <g transform="matrix(1,0,0,1,460.738,514.957)">
                    <path d="M366.653,0.078L373.921,0.078L373.921,21.499C373.921,24.849 374.28,27.172 374.985,28.478C375.685,29.775 376.896,30.428 378.611,30.428C380.324,30.428 381.535,29.775 382.238,28.478C382.946,27.172 383.302,24.849 383.302,21.499L383.302,0.078L390.573,0.078L390.573,23.649C390.573,26.26 390.423,28.228 390.134,29.53C389.846,30.848 389.359,31.985 388.679,32.975C387.522,34.678 386.137,35.929 384.503,36.738C382.866,37.547 380.908,37.948 378.611,37.948C376.312,37.948 374.356,37.547 372.72,36.738C371.093,35.929 369.696,34.678 368.541,32.975C367.865,31.985 367.374,30.889 367.085,29.66C366.801,28.436 366.653,26.432 366.653,23.649L366.653,0.078Z" style="fill:white;fill-rule:nonzero;"/>
                </g>
                <g transform="matrix(1,0,0,1,460.738,514.216)">
                    <path d="M396.887,37.948L396.887,0.819L404.869,0.819C406.488,0.819 407.772,0.877 408.726,1.011C409.679,1.138 410.52,1.358 411.251,1.661C413.285,2.49 414.851,3.689 415.942,5.255C417.033,6.817 417.569,8.644 417.569,10.74C417.569,12.474 417.249,13.952 416.601,15.168C415.948,16.399 415.001,17.329 413.753,17.956C415.578,18.496 417.019,19.541 418.076,21.09C419.126,22.641 419.661,24.485 419.661,26.623C419.661,28.356 419.336,29.985 418.691,31.508C418.052,33.03 417.146,34.296 416.014,35.293C414.875,36.252 413.601,36.929 412.192,37.337C410.778,37.751 408.781,37.948 406.2,37.948L396.887,37.948ZM403.877,31.421L406.067,31.421C408.282,31.421 409.899,31.044 410.939,30.308C411.976,29.565 412.496,28.429 412.496,26.877C412.496,25.197 411.958,23.919 410.867,23.048C409.782,22.188 408.177,21.75 406.067,21.75L403.877,21.75L403.877,31.421ZM403.877,15.763L404.725,15.763C406.722,15.763 408.221,15.398 409.209,14.677C410.187,13.952 410.684,12.87 410.684,11.429C410.684,10.036 410.215,8.999 409.285,8.337C408.354,7.678 406.9,7.345 404.923,7.345L403.877,7.345L403.877,15.763Z" style="fill:white;fill-rule:nonzero;"/>
                </g>
                <g transform="matrix(1,0,0,1,21.7106,460.081)">
                    <path d="M2.063,92.321L2.063,55.191L10.048,55.191C11.664,55.191 12.944,55.256 13.899,55.385C14.85,55.512 15.694,55.731 16.426,56.038C18.461,56.863 20.027,58.063 21.118,59.63C22.205,61.191 22.745,63.016 22.745,65.115C22.745,66.848 22.422,68.326 21.778,69.545C21.124,70.773 20.177,71.701 18.925,72.329C20.753,72.872 22.195,73.915 23.25,75.464C24.302,77.014 24.834,78.858 24.834,80.999C24.834,82.73 24.509,84.36 23.867,85.881C23.223,87.404 22.326,88.669 21.186,89.667C20.046,90.627 18.776,91.303 17.365,91.713C15.955,92.126 13.954,92.321 11.378,92.321L2.063,92.321ZM9.053,85.793L11.247,85.793C13.457,85.793 15.079,85.424 16.113,84.681C17.145,83.939 17.671,82.802 17.671,81.252C17.671,79.57 17.132,78.291 16.04,77.421C14.954,76.563 13.353,76.123 11.247,76.123L9.053,76.123L9.053,85.793ZM9.053,70.137L9.897,70.137C11.901,70.137 13.399,69.772 14.38,69.05C15.362,68.326 15.859,67.244 15.859,65.805C15.859,64.409 15.391,63.373 14.459,62.713C13.525,62.051 12.074,61.718 10.098,61.718L9.053,61.718L9.053,70.137Z" style="fill:white;fill-rule:nonzero;"/>
                </g>
                <g transform="matrix(1,0,0,1,21.7106,460.081)">
                    <path d="M36.036,92.321L28.77,92.321L28.77,55.191L37.594,55.191C40.397,55.191 42.485,55.287 43.851,55.488C45.218,55.68 46.384,56.003 47.359,56.448C49.466,57.428 51.076,58.805 52.18,60.57C53.285,62.339 53.834,64.409 53.834,66.797C53.834,69.667 53.044,72.105 51.458,74.097C49.883,76.1 47.733,77.37 45.009,77.908L54.294,92.321L45.618,92.321L36.036,75.083L36.036,92.321ZM36.036,73.242L37.645,73.242C40.58,73.242 42.816,72.714 44.339,71.65C45.861,70.589 46.619,69.038 46.619,66.994C46.619,65.026 45.984,63.574 44.706,62.636C43.433,61.703 41.44,61.232 38.736,61.232L36.036,61.232L36.036,73.242Z" style="fill:white;fill-rule:nonzero;"/>
                </g>
                <g transform="matrix(1,0,0,1,21.7106,460.08)">
                    <rect x="58.516" y="55.192" width="7.267" height="37.13" style="fill:white;"/>
                </g>
                <g transform="matrix(1,0,0,1,21.7106,460.081)">
                    <path d="M84.612,92.321L71.988,92.321L71.988,55.191L84.411,55.191C87.78,55.191 90.468,55.533 92.496,56.21C94.515,56.89 96.353,58.027 98.007,59.63C99.755,61.33 101.078,63.382 101.983,65.805C102.881,68.216 103.334,70.927 103.334,73.942C103.334,77.302 102.708,80.313 101.443,82.975C100.193,85.638 98.362,87.824 95.96,89.545C94.605,90.546 93.08,91.262 91.4,91.686C89.711,92.113 87.456,92.321 84.612,92.321M84.16,85.951C88.181,85.951 91.149,84.969 93.053,82.99C94.961,81.026 95.911,77.933 95.911,73.731C95.911,69.875 94.866,66.875 92.784,64.734C90.705,62.589 87.79,61.519 84.054,61.519L79.311,61.519L79.311,85.951L84.16,85.951Z" style="fill:white;fill-rule:nonzero;"/>
                </g>
                <g transform="matrix(1,0,0,1,21.7106,460.084)">
                    <path d="M144.302,72.58C144.302,72.717 144.312,72.931 144.328,73.208C144.346,73.485 144.353,73.692 144.353,73.833C144.353,75.427 144.207,76.912 143.919,78.28C143.631,79.647 143.188,80.937 142.594,82.147C140.846,85.628 138.461,88.316 135.441,90.214C132.418,92.11 129.008,93.061 125.206,93.061C122.393,93.061 119.8,92.519 117.427,91.448C115.038,90.378 112.897,88.796 111.002,86.679C109.416,84.912 108.205,82.909 107.381,80.665C106.546,78.422 106.127,76.046 106.127,73.528C106.127,70.944 106.632,68.487 107.632,66.166C108.633,63.849 110.105,61.736 112.045,59.829C113.882,58.01 115.92,56.662 118.171,55.772C120.426,54.891 122.924,54.449 125.657,54.449C129.653,54.449 133.109,55.427 136.017,57.382C138.925,59.333 141.161,62.185 142.743,65.947L133.918,65.947C132.848,64.607 131.587,63.598 130.132,62.927C128.679,62.255 127.05,61.919 125.249,61.919C122.074,61.919 119.382,63.066 117.172,65.363C114.961,67.653 113.856,70.445 113.856,73.728C113.856,77.064 114.97,79.873 117.208,82.162C119.445,84.453 122.193,85.593 125.457,85.593C127.721,85.593 129.775,84.981 131.619,83.753C133.467,82.528 134.824,80.873 135.711,78.803L121.125,78.803L121.125,72.58L144.302,72.58Z" style="fill:white;fill-rule:nonzero;"/>
                </g>
                <g transform="matrix(1,0,0,1,21.7106,460.081)">
                    <path d="M168.915,92.321L148.872,92.321L148.872,55.191L168.915,55.191L168.915,61.718L156.06,61.718L156.06,70.188L168.915,70.188L168.915,76.612L156.06,76.612L156.06,85.793L168.915,85.793L168.915,92.321Z" style="fill:white;fill-rule:nonzero;"/>
                </g>
                <g transform="matrix(1,0,0,1,21.7106,460.081)">
                    <path d="M182.248,92.321L174.981,92.321L174.981,55.191L183.807,55.191C186.611,55.191 188.698,55.287 190.064,55.488C191.433,55.68 192.599,56.003 193.575,56.448C195.68,57.428 197.291,58.805 198.396,60.57C199.501,62.339 200.048,64.409 200.048,66.797C200.048,69.667 199.257,72.105 197.675,74.097C196.101,76.1 193.949,77.37 191.225,77.908L200.51,92.321L191.831,92.321L182.248,75.083L182.248,92.321ZM182.248,73.242L183.861,73.242C186.792,73.242 189.03,72.714 190.554,71.65C192.077,70.589 192.835,69.038 192.835,66.994C192.835,65.026 192.199,63.574 190.918,62.636C189.649,61.703 187.653,61.232 184.947,61.232L182.248,61.232L182.248,73.242Z" style="fill:white;fill-rule:nonzero;"/>
                </g>
                <g transform="matrix(1,0,0,1,21.7106,460.081)">
                    <path d="M223.533,92.321L204.689,92.321L204.689,55.191L211.877,55.191L211.877,85.793L223.533,85.793L223.533,92.321Z" style="fill:white;fill-rule:nonzero;"/>
                </g>
                <g transform="matrix(1,0,0,1,21.7106,460.081)">
                    <path d="M234.959,84.542L232.079,92.321L224.551,92.321L238.962,55.191L245.231,55.191L259.436,92.321L251.654,92.321L248.728,84.542L234.959,84.542ZM246.326,77.656L241.942,65.698L237.459,77.656L246.326,77.656Z" style="fill:white;fill-rule:nonzero;"/>
                </g>
                <g transform="matrix(1,0,0,1,21.7106,460.081)">
                    <path d="M268.158,92.321L261.019,92.321L261.019,55.191L267.905,55.191L283.26,78.909L283.26,55.191L290.371,55.191L290.371,92.321L283.628,92.321L268.158,67.893L268.158,92.321Z" style="fill:white;fill-rule:nonzero;"/>
                </g>
                <g transform="matrix(1,0,0,1,21.7106,460.081)">
                    <path d="M352.945,84.542L350.06,92.321L342.531,92.321L356.943,55.191L363.212,55.191L377.415,92.321L369.636,92.321L366.715,84.542L352.945,84.542ZM364.313,77.656L359.922,65.698L355.437,77.656L364.313,77.656Z" style="fill:white;fill-rule:nonzero;"/>
                </g>
                <g transform="matrix(1,0,0,1,21.7106,460.081)">
                    <path d="M386.189,92.321L379,92.321L379,55.191L388.608,55.191L398.055,82.199L407.463,55.191L417.068,55.191L417.068,92.321L409.91,92.321L410.157,65.365L400.775,92.321L395.293,92.321L385.883,65.365L386.189,92.321Z" style="fill:white;fill-rule:nonzero;"/>
                </g>
                <g transform="matrix(1,0,0,1,21.7106,460.081)">
                    <path d="M428.618,84.542L425.739,92.321L418.211,92.321L432.622,55.191L438.891,55.191L453.095,92.321L445.318,92.321L442.388,84.542L428.618,84.542ZM439.986,77.656L435.598,65.698L431.116,77.656L439.986,77.656Z" style="fill:white;fill-rule:nonzero;"/>
                </g>
                <g transform="matrix(1,0,0,1,21.7106,460.081)">
                    <path d="M471.027,55.191L471.027,61.718L464.037,61.718L464.037,92.321L456.797,92.321L456.797,61.718L449.807,61.718L449.807,55.191L471.027,55.191Z" style="fill:white;fill-rule:nonzero;"/>
                </g>
                <g transform="matrix(1,0,0,1,21.7106,460.081)">
                    <path d="M494.491,92.321L474.444,92.321L474.444,55.191L494.491,55.191L494.491,61.718L481.633,61.718L481.633,70.188L494.491,70.188L494.491,76.612L481.633,76.612L481.633,85.793L494.491,85.793L494.491,92.321Z" style="fill:white;fill-rule:nonzero;"/>
                </g>
                <g transform="matrix(1,0,0,1,21.7106,460.824)">
                    <path d="M500.554,54.448L507.822,54.448L507.822,75.869C507.822,79.22 508.182,81.545 508.885,82.851C509.592,84.146 510.797,84.799 512.516,84.799C514.232,84.799 515.436,84.146 516.143,82.851C516.847,81.545 517.207,79.22 517.207,75.869L517.207,54.448L524.474,54.448L524.474,78.019C524.474,80.63 524.324,82.598 524.039,83.903C523.751,85.219 523.26,86.36 522.584,87.349C521.431,89.049 520.034,90.299 518.407,91.109C516.767,91.921 514.811,92.321 512.516,92.321C510.217,92.321 508.261,91.921 506.621,91.109C504.994,90.299 503.605,89.049 502.448,87.349C501.768,86.36 501.279,85.26 500.99,84.032C500.704,82.806 500.554,80.805 500.554,78.019L500.554,54.448Z" style="fill:white;fill-rule:nonzero;"/>
                </g>
                <g transform="matrix(1,0,0,1,21.7106,459.861)">
                    <path d="M537.915,92.321L530.644,92.321L530.644,55.191L539.473,55.191C542.269,55.191 544.366,55.287 545.732,55.488C547.097,55.68 548.264,56.003 549.242,56.448C551.342,57.428 552.951,58.805 554.056,60.57C555.168,62.339 555.714,64.409 555.714,66.797C555.714,69.667 554.925,72.105 553.343,74.097C551.761,76.1 549.612,77.37 546.885,77.908L556.177,92.321L547.499,92.321L537.915,75.083L537.915,92.321ZM537.915,73.242L539.528,73.242C542.452,73.242 544.695,72.714 546.219,71.65C547.74,70.589 548.498,69.038 548.498,66.994C548.498,65.026 547.863,63.574 546.586,62.636C545.31,61.703 543.32,61.232 540.612,61.232L537.915,61.232L537.915,73.242Z" style="fill:white;fill-rule:nonzero;"/>
                </g>
                <g transform="matrix(1,0,0,1,21.7106,460.08)">
                    <path d="M317.654,82.99C315.744,84.97 312.778,85.952 308.761,85.952L303.912,85.952L303.912,61.52L308.655,61.52C312.385,61.52 315.302,62.591 317.385,64.736C319.466,66.877 320.511,69.875 320.511,73.733C320.511,77.934 319.557,81.028 317.654,82.99M326.588,65.806C325.678,63.384 324.356,61.331 322.608,59.631C320.954,58.029 319.115,56.891 317.096,56.212C315.071,55.534 312.381,55.192 309.013,55.192L296.589,55.192L296.589,92.322L309.208,92.322C312.061,92.322 314.312,92.114 316,91.688C317.682,91.264 319.205,90.548 320.562,89.545C322.963,87.826 324.793,85.64 326.044,82.977C327.305,80.314 327.94,77.303 327.94,73.944C327.94,70.929 327.479,68.216 326.588,65.806" style="fill:white;fill-rule:nonzero;"/>
                </g>
            </g>
        </g>
    </g>
</svg>
