<svg width="24" height="24" viewBox="0 0 24 24" fill="none" xmlns="http://www.w3.org/2000/svg">
<path d="M23.9991 12C23.9967 11.2965 23.842 10.6026 23.5467 9.97021C23.2513 9.33781 22.8228 8.78322 22.2932 8.34784C23.0259 7.74514 23.56 6.91884 23.821 5.9842C24.0821 5.04956 24.057 4.05319 23.7494 3.1341C23.4418 2.21501 22.867 1.41903 22.1051 0.857206C21.3433 0.295379 20.4323 -0.00427505 19.4994 4.60851e-05H4.50056C3.56766 -0.00427505 2.65674 0.295379 1.89487 0.857206C1.13299 1.41903 0.55816 2.21501 0.250564 3.1341C-0.0570321 4.05319 -0.0820525 5.04956 0.178993 5.9842C0.440039 6.91884 0.974131 7.74514 1.70676 8.34784C1.17535 8.78148 0.745541 9.33571 0.449944 9.9685C0.154346 10.6013 0.000721536 11.296 0.000721536 12C0.000721536 12.704 0.154346 13.3987 0.449944 14.0315C0.745541 14.6643 1.17535 15.2185 1.70676 15.6522C0.974131 16.2549 0.440039 17.0812 0.178993 18.0158C-0.0820525 18.9504 -0.0570321 19.9468 0.250564 20.8659C0.55816 21.785 1.13299 22.581 1.89487 23.1428C2.65674 23.7046 3.56766 24.0043 4.50056 24H19.4994C20.4323 24.0043 21.3433 23.7046 22.1051 23.1428C22.867 22.581 23.4418 21.785 23.7494 20.8659C24.057 19.9468 24.0821 18.9504 23.821 18.0158C23.56 17.0812 23.0259 16.2549 22.2932 15.6522C22.8228 15.2168 23.2513 14.6622 23.5467 14.0298C23.842 13.3974 23.9967 12.7035 23.9991 12ZM2.00074 4.69568C2.00074 4.00381 2.26411 3.34028 2.73292 2.85106C3.20173 2.36184 3.83756 2.08699 4.50056 2.08699H5.00052V3.13047C5.00052 3.40722 5.10587 3.67263 5.29339 3.86832C5.48091 4.06401 5.73525 4.17394 6.00044 4.17394C6.26564 4.17394 6.51998 4.06401 6.7075 3.86832C6.89502 3.67263 7.00037 3.40722 7.00037 3.13047V2.08699H9.00022V3.13047C9.00022 3.40722 9.10557 3.67263 9.29309 3.86832C9.48062 4.06401 9.73495 4.17394 10.0001 4.17394C10.2653 4.17394 10.5197 4.06401 10.7072 3.86832C10.8947 3.67263 11.0001 3.40722 11.0001 3.13047V2.08699H19.4994C20.1624 2.08699 20.7983 2.36184 21.2671 2.85106C21.7359 3.34028 21.9993 4.00381 21.9993 4.69568C21.9993 5.38755 21.7359 6.05108 21.2671 6.5403C20.7983 7.02952 20.1624 7.30437 19.4994 7.30437H4.50056C3.83756 7.30437 3.20173 7.02952 2.73292 6.5403C2.26411 6.05108 2.00074 5.38755 2.00074 4.69568ZM21.9993 19.3043C21.9993 19.9962 21.7359 20.6597 21.2671 21.1489C20.7983 21.6382 20.1624 21.913 19.4994 21.913H4.50056C3.83756 21.913 3.20173 21.6382 2.73292 21.1489C2.26411 20.6597 2.00074 19.9962 2.00074 19.3043C2.00074 18.6125 2.26411 17.9489 2.73292 17.4597C3.20173 16.9705 3.83756 16.6956 4.50056 16.6956H5.00052V17.7391C5.00052 18.0159 5.10587 18.2813 5.29339 18.477C5.48091 18.6726 5.73525 18.7826 6.00044 18.7826C6.26564 18.7826 6.51998 18.6726 6.7075 18.477C6.89502 18.2813 7.00037 18.0159 7.00037 17.7391V16.6956H9.00022V17.7391C9.00022 18.0159 9.10557 18.2813 9.29309 18.477C9.48062 18.6726 9.73495 18.7826 10.0001 18.7826C10.2653 18.7826 10.5197 18.6726 10.7072 18.477C10.8947 18.2813 11.0001 18.0159 11.0001 17.7391V16.6956H19.4994C20.1624 16.6956 20.7983 16.9705 21.2671 17.4597C21.7359 17.9489 21.9993 18.6125 21.9993 19.3043ZM4.50056 14.6087C3.83756 14.6087 3.20173 14.3338 2.73292 13.8446C2.26411 13.3554 2.00074 12.6919 2.00074 12C2.00074 11.3081 2.26411 10.6446 2.73292 10.1554C3.20173 9.66616 3.83756 9.39131 4.50056 9.39131H5.00052V10.4348C5.00052 10.7115 5.10587 10.9769 5.29339 11.1726C5.48091 11.3683 5.73525 11.4783 6.00044 11.4783C6.26564 11.4783 6.51998 11.3683 6.7075 11.1726C6.89502 10.9769 7.00037 10.7115 7.00037 10.4348V9.39131H9.00022V10.4348C9.00022 10.7115 9.10557 10.9769 9.29309 11.1726C9.48062 11.3683 9.73495 11.4783 10.0001 11.4783C10.2653 11.4783 10.5197 11.3683 10.7072 11.1726C10.8947 10.9769 11.0001 10.7115 11.0001 10.4348V9.39131H19.4994C20.1624 9.39131 20.7983 9.66616 21.2671 10.1554C21.7359 10.6446 21.9993 11.3081 21.9993 12C21.9993 12.6919 21.7359 13.3554 21.2671 13.8446C20.7983 14.3338 20.1624 14.6087 19.4994 14.6087H4.50056Z" />
</svg>
