<svg width="18" height="18" viewBox="0 0 18 18" fill="none" xmlns="http://www.w3.org/2000/svg">
  <path d="M13.9921 0.697492L4.84808 9.84148C4.49883 10.1888 4.22196 10.602 4.03349 11.0571C3.84501 11.5122 3.74869 12.0002 3.75008 12.4927V13.5C3.75008 13.6989 3.82909 13.8897 3.96975 14.0303C4.1104 14.171 4.30116 14.25 4.50008 14.25H5.50732C5.9999 14.2514 6.48785 14.155 6.94294 13.9666C7.39803 13.7781 7.81121 13.5012 8.15857 13.152L17.3026 4.00799C17.7409 3.56862 17.987 2.97335 17.987 2.35274C17.987 1.73214 17.7409 1.13686 17.3026 0.697492C16.8568 0.271413 16.2639 0.0336304 15.6473 0.0336304C15.0307 0.0336304 14.4378 0.271413 13.9921 0.697492ZM16.2421 2.94749L7.09807 12.0915C6.67517 12.5118 6.10358 12.7484 5.50732 12.75H5.25007V12.4927C5.25164 11.8965 5.48825 11.3249 5.90857 10.902L15.0526 1.75799C15.2128 1.60496 15.4258 1.51956 15.6473 1.51956C15.8689 1.51956 16.0819 1.60496 16.2421 1.75799C16.3995 1.91588 16.4879 2.12976 16.4879 2.35274C16.4879 2.57572 16.3995 2.7896 16.2421 2.94749Z" />
  <path d="M17.25 6.73424C17.0511 6.73424 16.8603 6.81326 16.7197 6.95391C16.579 7.09457 16.5 7.28533 16.5 7.48424V11.25H13.5C12.9033 11.25 12.331 11.487 11.909 11.909C11.487 12.331 11.25 12.9033 11.25 13.5V16.5H3.75C3.15326 16.5 2.58097 16.2629 2.15901 15.841C1.73705 15.419 1.5 14.8467 1.5 14.25V3.75C1.5 3.15326 1.73705 2.58096 2.15901 2.15901C2.58097 1.73705 3.15326 1.5 3.75 1.5H10.5315C10.7304 1.5 10.9212 1.42098 11.0618 1.28033C11.2025 1.13968 11.2815 0.948912 11.2815 0.749999C11.2815 0.551087 11.2025 0.360322 11.0618 0.21967C10.9212 0.0790176 10.7304 0 10.5315 0L3.75 0C2.7558 0.00119089 1.80267 0.396661 1.09966 1.09966C0.396661 1.80267 0.00119089 2.7558 0 3.75L0 14.25C0.00119089 15.2442 0.396661 16.1973 1.09966 16.9003C1.80267 17.6033 2.7558 17.9988 3.75 18H12.2572C12.7499 18.0014 13.238 17.9051 13.6932 17.7166C14.1484 17.5281 14.5617 17.2513 14.9092 16.902L16.9012 14.9085C17.2506 14.5611 17.5275 14.148 17.7161 13.6929C17.9047 13.2378 18.0012 12.7499 18 12.2572V7.48424C18 7.28533 17.921 7.09457 17.7803 6.95391C17.6397 6.81326 17.4489 6.73424 17.25 6.73424ZM13.8487 15.8415C13.5473 16.1422 13.166 16.3504 12.75 16.4415V13.5C12.75 13.3011 12.829 13.1103 12.9697 12.9697C13.1103 12.829 13.3011 12.75 13.5 12.75H16.4437C16.351 13.1651 16.143 13.5457 15.8437 13.848L13.8487 15.8415Z" />
</svg>
