<svg width="16" height="16" viewBox="0 0 16 16" xmlns="http://www.w3.org/2000/svg">
  <g clipPath="url(#clip0_247_441)">
    <path
      d="M14.8277 3.51467L12.4843 1.17133C11.729 0.416 10.7243 0 9.65633 0H6.34233C5.27433 0 4.26967 0.416 3.51367 1.17133L1.17033 3.51467C0.415001 4.27067 -0.000999451 5.27533 -0.000999451 6.34333V9.65733C-0.000999451 10.7253 0.415001 11.73 1.17033 12.486L3.51367 14.8293C4.26967 15.5847 5.27433 16.0007 6.34233 16.0007H9.65633C10.725 16.0007 11.729 15.5847 12.4843 14.8293L14.8277 12.4867C15.5837 11.7313 15.9997 10.7267 15.9997 9.658V6.344C15.9997 5.27533 15.5837 4.27 14.8277 3.51467ZM10.959 10.0407C11.2197 10.3013 11.2197 10.7227 10.959 10.9833C10.829 11.1133 10.6583 11.1787 10.4877 11.1787C10.317 11.1787 10.1463 11.1133 10.0163 10.9833L7.98767 8.95467L5.959 10.9833C5.829 11.1133 5.65833 11.1787 5.48767 11.1787C5.317 11.1787 5.14633 11.1133 5.01633 10.9833C4.75567 10.7227 4.75567 10.3013 5.01633 10.0407L7.045 8.012L5.01633 5.98333C4.75567 5.72267 4.75567 5.30133 5.01633 5.04067C5.277 4.78 5.69833 4.78 5.959 5.04067L7.98767 7.06933L10.0163 5.04067C10.277 4.78 10.6983 4.78 10.959 5.04067C11.2197 5.30133 11.2197 5.72267 10.959 5.98333L8.93033 8.012L10.959 10.0407Z"
    />
  </g>
  <defs>
    <clipPath id="clip0_247_441">
      <rect width="16" height="16" />
    </clipPath>
  </defs>
</svg>
