<svg width="24" height="24" viewBox="0 0 24 24" fill="none" xmlns="http://www.w3.org/2000/svg">
  <path d="M18.6736 20.9C18.2633 20.53 17.6229 20.57 17.2626 20.99C16.6922 21.64 15.8716 22.01 15.0109 22.01H5.00365C3.35244 22.01 2.00146 20.66 2.00146 19.01V5C2.00146 3.35 3.35244 2 5.00365 2H9.51694C9.67706 2 9.84718 2 10.0073 2.02V7C10.0073 8.65 11.3583 10 13.0095 10H18.8237C19.134 10 19.4242 9.86 19.6143 9.61C19.8044 9.36 19.8645 9.05 19.7944 8.75C19.4842 7.53 18.8537 6.42 17.9631 5.53L14.4806 2.05C13.1596 0.73 11.3983 0 9.52695 0H5.00365C2.24163 0 0 2.24 0 5V19C0 21.76 2.24163 24 5.00365 24H15.0109C16.442 24 17.813 23.38 18.7637 22.31C19.134 21.9 19.0939 21.26 18.6736 20.9ZM12.0088 2.66C12.389 2.88 12.7393 3.15 13.0595 3.47L16.5421 6.95C16.8523 7.26 17.1225 7.62 17.3426 8H12.9995C12.4491 8 11.9987 7.55 11.9987 7V2.66H12.0088ZM23.1469 18.09L21.5357 19.7C21.3356 19.9 21.0854 19.99 20.8252 19.99C20.565 19.99 20.3148 19.89 20.1147 19.7C19.7244 19.31 19.7244 18.68 20.1147 18.29L21.4056 17H14.0002C13.4498 17 12.9995 16.55 12.9995 16C12.9995 15.45 13.4498 15 14.0002 15H21.4056L20.1147 13.71C19.7244 13.32 19.7244 12.69 20.1147 12.3C20.505 11.91 21.1354 11.91 21.5257 12.3L23.1369 13.91C24.2877 15.06 24.2877 16.94 23.1369 18.1L23.1469 18.09Z" />
</svg>
