
<svg width="24" height="24" viewBox="0 0 24 24" fill="none" xmlns="http://www.w3.org/2000/svg">
<g clip-path="url(#clip0_247_404)">
<path d="M15 2.766V1C15 0.447 14.552 0 14 0C13.448 0 13 0.447 13 1V2H11V1C11 0.447 10.552 0 10 0C9.448 0 9 0.447 9 1V2H7V1C7 0.447 6.552 0 6 0C5.448 0 5 0.447 5 1V2H3V1C3 0.447 2.552 0 2 0C1.448 0 1 0.447 1 1V2.766C0.387 3.316 0 4.113 0 5V19C0 21.757 2.243 24 5 24H11C13.757 24 16 21.757 16 19V5C16 4.114 15.613 3.316 15 2.766ZM14 19C14 20.654 12.654 22 11 22H5C3.346 22 2 20.654 2 19V5C2 4.448 2.449 4 3 4H13C13.551 4 14 4.448 14 5V19ZM12 8C12 8.553 11.552 9 11 9H5C4.448 9 4 8.553 4 8C4 7.447 4.448 7 5 7H11C11.552 7 12 7.447 12 8ZM12 12C12 12.553 11.552 13 11 13H5C4.448 13 4 12.553 4 12C4 11.447 4.448 11 5 11H11C11.552 11 12 11.447 12 12ZM9 16C9 16.553 8.552 17 8 17H5C4.448 17 4 16.553 4 16C4 15.447 4.448 15 5 15H8C8.552 15 9 15.447 9 16ZM21 0C19.346 0 18 1.346 18 3V19.758C18 20.812 18.427 21.842 19.172 22.586L20.293 23.707C20.488 23.902 20.744 24 21 24C21.256 24 21.512 23.902 21.707 23.707L22.828 22.586C23.573 21.842 24 20.812 24 19.758V3C24 1.346 22.654 0 21 0ZM22 19.758C22 20.284 21.787 20.8 21.414 21.172L21 21.586L20.586 21.172C20.213 20.8 20 20.284 20 19.758V3C20 2.448 20.449 2 21 2C21.551 2 22 2.448 22 3V19.758Z" />
</g>
<defs>
<clipPath id="clip0_247_404">
<rect width="24" height="24"/>
</clipPath>
</defs>
</svg>
