<svg width="24" height="24" viewBox="0 0 24 24" fill="none" xmlns="http://www.w3.org/2000/svg">
  <path
    d="M2.5 2.5C2.5 1.119 3.619 0 5 0C6.381 0 7.5 1.119 7.5 2.5C7.5 3.881 6.381 5 5 5C3.619 5 2.5 3.881 2.5 2.5ZM13.5 3.5C12.672 3.5 12 4.172 12 5C12 5.828 12.672 6.5 13.5 6.5C14.328 6.5 15 5.828 15 5C15 4.172 14.328 3.5 13.5 3.5ZM13.5 10.5C12.672 10.5 12 11.172 12 12C12 12.828 12.672 13.5 13.5 13.5C14.328 13.5 15 12.828 15 12C15 11.172 14.328 10.5 13.5 10.5ZM13.5 17.5C12.672 17.5 12 18.172 12 19C12 19.828 12.672 20.5 13.5 20.5C14.328 20.5 15 19.828 15 19C15 18.172 14.328 17.5 13.5 17.5ZM10 10V13C10 14.474 9.19 15.75 8 16.444V23C8 23.552 7.552 24 7 24C6.448 24 6 23.552 6 23V17H4V23C4 23.552 3.552 24 3 24C2.448 24 2 23.552 2 23V16.444C0.81 15.75 0 14.474 0 13V10C0 7.794 1.794 6 4 6H6C8.206 6 10 7.794 10 10ZM8 10C8 8.897 7.103 8 6 8H4C2.897 8 2 8.897 2 10V13C2 14.103 2.897 15 4 15H6C7.103 15 8 14.103 8 13V10ZM18 6H23C23.553 6 24 5.552 24 5C24 4.448 23.553 4 23 4H18C17.447 4 17 4.448 17 5C17 5.552 17.447 6 18 6ZM23 11H18C17.447 11 17 11.448 17 12C17 12.552 17.447 13 18 13H23C23.553 13 24 12.552 24 12C24 11.448 23.553 11 23 11ZM23 18H18C17.447 18 17 18.448 17 19C17 19.552 17.447 20 18 20H23C23.553 20 24 19.552 24 19C24 18.448 23.553 18 23 18Z"
  />
</svg>

