<svg width="21" height="24" viewBox="0 0 21 24" fill="none" xmlns="http://www.w3.org/2000/svg">
<path d="M21 12.5C21 12.8978 20.842 13.2794 20.5607 13.5607C20.2794 13.842 19.8978 14 19.5 14H16.63C16.026 13.9982 15.4327 13.8408 14.9073 13.543C14.3818 13.2453 13.9419 12.8172 13.63 12.3L12.405 10.266L10.615 14.629L13.229 16.116C13.7668 16.4224 14.214 16.8657 14.525 17.4009C14.8361 17.936 15 18.544 15 19.163V22.5C15 22.8978 14.842 23.2794 14.5607 23.5607C14.2794 23.842 13.8978 24 13.5 24C13.1022 24 12.7206 23.842 12.4393 23.5607C12.158 23.2794 12 22.8978 12 22.5V19.163C12 19.0749 11.9766 18.9883 11.9324 18.9121C11.8881 18.8359 11.8245 18.7727 11.748 18.729L7.666 16.406C6.9536 15.9724 6.41878 15.2995 6.15732 14.5075C5.89585 13.7156 5.92481 12.8565 6.239 12.084L7.5 9H5.736C5.64312 9.0001 5.55209 9.02606 5.47314 9.07499C5.39419 9.12391 5.33043 9.19387 5.289 9.277L3.842 12.171C3.66404 12.5269 3.35198 12.7976 2.97447 12.9234C2.59696 13.0492 2.18492 13.02 1.829 12.842C1.47308 12.664 1.20243 12.352 1.07659 11.9745C0.950757 11.597 0.98004 11.1849 1.158 10.829L2.605 7.935C2.89412 7.35226 3.34065 6.86213 3.89402 6.52014C4.44739 6.17815 5.08548 5.99797 5.736 6H11.36C11.964 6.00184 12.5573 6.15923 13.0827 6.45699C13.6082 6.75474 14.0481 7.18284 14.36 7.7L16.2 10.758C16.2446 10.8321 16.3077 10.8933 16.3831 10.9357C16.4584 10.9782 16.5435 11.0003 16.63 11H19.5C19.8978 11 20.2794 11.158 20.5607 11.4393C20.842 11.7206 21 12.1022 21 12.5ZM6.057 16.85C5.87407 16.7768 5.67852 16.7404 5.48151 16.7428C5.2845 16.7452 5.0899 16.7864 4.90882 16.8641C4.72774 16.9417 4.56372 17.0542 4.42615 17.1953C4.28857 17.3363 4.18012 17.5031 4.107 17.686C4.06985 17.7787 4.00581 17.8581 3.92311 17.9141C3.84041 17.9701 3.74285 18 3.643 18H1.5C1.10218 18 0.720644 18.158 0.43934 18.4393C0.158035 18.7206 0 19.1022 0 19.5C0 19.8978 0.158035 20.2794 0.43934 20.5607C0.720644 20.842 1.10218 21 1.5 21H3.643C4.34304 21.0023 5.02753 20.7936 5.60724 20.4012C6.18695 20.0087 6.63501 19.4508 6.893 18.8C6.96618 18.6171 7.0026 18.4215 7.00019 18.2245C6.99778 18.0275 6.95658 17.8329 6.87895 17.6518C6.80131 17.4707 6.68877 17.3067 6.54773 17.1691C6.4067 17.0316 6.23995 16.9231 6.057 16.85ZM12.5 5C12.9945 5 13.4778 4.85338 13.8889 4.57867C14.3 4.30397 14.6205 3.91352 14.8097 3.45671C14.9989 2.99989 15.0484 2.49723 14.952 2.01228C14.8555 1.52732 14.6174 1.08187 14.2678 0.732234C13.9181 0.382603 13.4727 0.144501 12.9877 0.0480379C12.5028 -0.0484251 12.0001 0.00108321 11.5433 0.190302C11.0865 0.379521 10.696 0.699953 10.4213 1.11108C10.1466 1.5222 10 2.00555 10 2.5C10 3.16304 10.2634 3.79893 10.7322 4.26777C11.2011 4.73661 11.837 5 12.5 5Z" />
</svg>
