<svg width="23" height="24" viewBox="0 0 23 24" fill="none" xmlns="http://www.w3.org/2000/svg">
  <path d="M11.25 8C10.4256 8 9.61981 8.2346 8.9344 8.67412C8.24898 9.11365 7.71476 9.73836 7.3993 10.4693C7.08384 11.2002 7.0013 12.0044 7.16212 12.7804C7.32294 13.5563 7.7199 14.269 8.3028 14.8284C8.8857 15.3878 9.62835 15.7688 10.4369 15.9231C11.2454 16.0775 12.0834 15.9983 12.845 15.6955C13.6066 15.3928 14.2575 14.8801 14.7155 14.2223C15.1735 13.5645 15.4179 12.7911 15.4179 12C15.4179 10.9391 14.9788 9.92172 14.1972 9.17157C13.4155 8.42143 12.3554 8 11.25 8ZM11.25 14C10.8378 14 10.4349 13.8827 10.0922 13.6629C9.74948 13.4432 9.48237 13.1308 9.32464 12.7654C9.16691 12.3999 9.12564 11.9978 9.20605 11.6098C9.28646 11.2219 9.48494 10.8655 9.77639 10.5858C10.0678 10.3061 10.4392 10.1156 10.8434 10.0384C11.2477 9.96126 11.6667 10.0009 12.0475 10.1522C12.4283 10.3036 12.7538 10.56 12.9827 10.8889C13.2117 11.2178 13.334 11.6044 13.334 12C13.334 12.5304 13.1144 13.0391 12.7236 13.4142C12.3328 13.7893 11.8027 14 11.25 14Z" />
  <path d="M20.9342 13.9L20.4716 13.644C20.6799 12.5564 20.6799 11.4416 20.4716 10.354L20.9342 10.098C21.29 9.90102 21.6019 9.63871 21.852 9.32606C22.1022 9.01341 22.2857 8.65654 22.3921 8.27582C22.4986 7.8951 22.5258 7.49799 22.4723 7.10716C22.4188 6.71633 22.2857 6.33944 22.0804 5.998C21.8752 5.65656 21.6018 5.35727 21.2761 5.1172C20.9503 4.87714 20.5784 4.70101 20.1817 4.59886C19.785 4.49672 19.3712 4.47056 18.964 4.52189C18.5568 4.57321 18.164 4.70102 17.8083 4.898L17.3446 5.155C16.4688 4.43692 15.4624 3.88025 14.376 3.513V3C14.376 2.20435 14.0466 1.44129 13.4604 0.87868C12.8742 0.31607 12.0791 0 11.25 0C10.4209 0 9.62584 0.31607 9.03961 0.87868C8.45338 1.44129 8.12404 2.20435 8.12404 3V3.513C7.03765 3.88157 6.03157 4.4396 5.15646 5.159L4.69069 4.9C3.97217 4.50218 3.11841 4.39457 2.31723 4.60086C1.51605 4.80715 0.833068 5.31044 0.418539 6C0.0040107 6.68956 -0.10811 7.50892 0.106841 8.27782C0.321793 9.04672 0.846209 9.70218 1.56473 10.1L2.02737 10.356C1.81908 11.4436 1.81908 12.5584 2.02737 13.646L1.56473 13.902C0.846209 14.2998 0.321793 14.9553 0.106841 15.7242C-0.10811 16.4931 0.0040107 17.3124 0.418539 18.002C0.833068 18.6916 1.51605 19.1948 2.31723 19.4011C3.11841 19.6074 3.97217 19.4998 4.69069 19.102L5.15437 18.845C6.03044 19.5632 7.03722 20.1199 8.12404 20.487V21C8.12404 21.7956 8.45338 22.5587 9.03961 23.1213C9.62584 23.6839 10.4209 24 11.25 24C12.0791 24 12.8742 23.6839 13.4604 23.1213C14.0466 22.5587 14.376 21.7956 14.376 21V20.487C15.4624 20.1184 16.4684 19.5604 17.3435 18.841L17.8093 19.099C18.5278 19.4968 19.3816 19.6044 20.1828 19.3981C20.984 19.1918 21.6669 18.6886 22.0815 17.999C22.496 17.3094 22.6081 16.4901 22.3932 15.7212C22.1782 14.9523 21.6538 14.2968 20.9353 13.899L20.9342 13.9ZM18.2792 10.124C18.6321 11.3511 18.6321 12.6469 18.2792 13.874C18.2176 14.0876 18.2317 14.3147 18.3192 14.5198C18.4067 14.7249 18.5627 14.8963 18.7627 15.007L19.8922 15.633C20.1317 15.7656 20.3065 15.9841 20.3781 16.2403C20.4497 16.4966 20.4123 16.7697 20.2741 16.9995C20.136 17.2293 19.9083 17.397 19.6413 17.4658C19.3743 17.5345 19.0897 17.4986 18.8503 17.366L17.7187 16.738C17.5185 16.6267 17.2854 16.5826 17.0562 16.6124C16.827 16.6423 16.6146 16.7445 16.4526 16.903C15.5252 17.8117 14.3568 18.46 13.0735 18.778C12.8495 18.8333 12.651 18.9585 12.5093 19.1339C12.3677 19.3094 12.2908 19.525 12.2909 19.747V21C12.2909 21.2652 12.1812 21.5196 11.9858 21.7071C11.7903 21.8946 11.5253 22 11.249 22C10.9726 22 10.7076 21.8946 10.5122 21.7071C10.3168 21.5196 10.207 21.2652 10.207 21V19.748C10.2071 19.526 10.1303 19.3104 9.98857 19.1349C9.8469 18.9595 9.64843 18.8343 9.42444 18.779C8.14107 18.4597 6.97298 17.81 6.04631 16.9C5.88431 16.7415 5.67197 16.6393 5.44275 16.6094C5.21353 16.5796 4.98047 16.6237 4.7803 16.735L3.65078 17.362C3.53224 17.4287 3.40111 17.4722 3.26496 17.4901C3.12881 17.508 2.99032 17.4998 2.85747 17.4661C2.72462 17.4324 2.60003 17.3738 2.49087 17.2937C2.38171 17.2136 2.29013 17.1135 2.22142 16.9993C2.15271 16.8851 2.10822 16.759 2.09051 16.6282C2.0728 16.4974 2.08221 16.3646 2.11822 16.2373C2.15422 16.11 2.2161 15.9909 2.3003 15.8866C2.38449 15.7824 2.48934 15.6952 2.6088 15.63L3.73831 15.004C3.93832 14.8933 4.09433 14.7219 4.18184 14.5168C4.26935 14.3117 4.28341 14.0846 4.22179 13.871C3.86893 12.6439 3.86893 11.3481 4.22179 10.121C4.2823 9.90788 4.26757 9.68153 4.17992 9.47729C4.09227 9.27305 3.93662 9.10241 3.73727 8.992L2.60775 8.366C2.3683 8.23339 2.19353 8.01492 2.12192 7.75865C2.0503 7.50239 2.08769 7.22931 2.22587 6.9995C2.36404 6.76969 2.59168 6.60197 2.85871 6.53324C3.12574 6.46451 3.41028 6.50039 3.64974 6.633L4.78134 7.261C4.98096 7.37251 5.21354 7.41721 5.44251 7.38807C5.67148 7.35893 5.88388 7.25759 6.04631 7.1C6.97377 6.19134 8.14219 5.54302 9.42548 5.225C9.65017 5.16956 9.84915 5.04375 9.9909 4.8675C10.1326 4.69125 10.2091 4.47464 10.208 4.252V3C10.208 2.73478 10.3178 2.48043 10.5132 2.29289C10.7086 2.10536 10.9736 2 11.25 2C11.5264 2 11.7914 2.10536 11.9868 2.29289C12.1822 2.48043 12.292 2.73478 12.292 3V4.252C12.2919 4.47396 12.3687 4.68964 12.5104 4.86508C12.6521 5.04052 12.8505 5.16573 13.0745 5.221C14.3583 5.54015 15.5267 6.18988 16.4537 7.1C16.6157 7.25847 16.828 7.36069 17.0573 7.39057C17.2865 7.42044 17.5195 7.37626 17.7197 7.265L18.8492 6.638C18.9678 6.5713 19.0989 6.52777 19.235 6.5099C19.3712 6.49204 19.5097 6.50019 19.6425 6.5339C19.7754 6.56761 19.9 6.6262 20.0091 6.70631C20.1183 6.78642 20.2099 6.88646 20.2786 7.00067C20.3473 7.11488 20.3918 7.24101 20.4095 7.37179C20.4272 7.50257 20.4178 7.63542 20.3818 7.76269C20.3458 7.88997 20.2839 8.00915 20.1997 8.11337C20.1155 8.2176 20.0107 8.30482 19.8912 8.37L18.7617 8.996C18.5627 9.10671 18.4075 9.27748 18.3202 9.48169C18.233 9.68591 18.2186 9.9121 18.2792 10.125V10.124Z" />
</svg>
