<svg width="24" height="24" viewBox="0 0 24 24" fill="none" xmlns="http://www.w3.org/2000/svg">
  <g clip-path="url(#clip0_603_449)">
    <path d="M9.553 14.397C10.228 15.057 11.114 16 12 16C12.886 16 13.772 15.057 14.447 14.397L16.949 11.949C18.271 10.627 19 8.86899 19 6.99899C19 5.12899 18.271 3.37199 16.949 2.04899C15.628 0.726993 13.87 -0.00100708 12 -0.00100708C10.13 -0.00100708 8.372 0.726993 7.05 2.04899C4.321 4.77799 4.321 9.21899 7.058 11.956L9.553 14.396V14.397ZM8.464 3.46399C9.408 2.51999 10.664 1.99999 12 1.99999C13.336 1.99999 14.591 2.51999 15.535 3.46399C16.479 4.40799 17 5.66399 17 6.99999C17 8.33599 16.479 9.59099 15.543 10.528L13.049 12.968C12.017 14 11.983 14 10.951 12.968L8.464 10.536C6.515 8.58599 6.515 5.41299 8.464 3.46399ZM9 6.98999C9 5.33299 10.343 3.98999 12 3.98999C13.657 3.98999 15 5.33299 15 6.98999C15 8.64699 13.657 9.98999 12 9.98999C10.343 9.98999 9 8.64699 9 6.98999ZM24 16.767C24 17.119 23.815 17.444 23.515 17.624L13.654 23.541C13.144 23.847 12.572 24 12.001 24C11.43 24 10.857 23.847 10.348 23.541L0.485 17.625C0.184 17.444 0 17.119 0 16.768C0 16.417 0.185 16.091 0.485 15.911L4.714 13.374C5.189 13.089 5.803 13.243 6.086 13.717C6.37 14.191 6.217 14.805 5.743 15.089L2.943 16.769L11.376 21.829C11.761 22.059 12.239 22.059 12.624 21.829L21.057 16.769L18.257 15.089C17.783 14.805 17.63 14.191 17.914 13.717C18.198 13.243 18.811 13.089 19.286 13.374L23.515 15.911C23.816 16.092 24 16.416 24 16.767Z" fill="#7E898F"/>
  </g>
  <defs>
    <clipPath id="clip0_603_449">
      <rect width="24" height="24" fill="white"/>
    </clipPath>
  </defs>
</svg>
