
<svg width="24" height="24" viewBox="0 0 24 24" fill="none" xmlns="http://www.w3.org/2000/svg">
<path d="M0.000249989 9.00025C0.000249989 8.44825 0.44825 8.00025 1.00025 8.00025H3.10825C3.25525 7.12625 3.58025 6.27925 4.11425 5.52925L2.63625 4.05125C2.24525 3.66025 2.24525 3.02825 2.63625 2.63725C3.02725 2.24625 3.65925 2.24625 4.05025 2.63725L5.52825 4.11525C6.27925 3.58125 7.12625 3.25625 7.99925 3.10925V1.00025C7.99925 0.44825 8.44725 0.000249989 8.99925 0.000249989C9.55125 0.000249989 9.99925 0.44825 9.99925 1.00025V3.10825C10.8732 3.25525 11.7242 3.57425 12.4762 4.10925L13.9493 2.63625C14.3403 2.24525 14.9722 2.24525 15.3632 2.63625C15.7542 3.02725 15.7542 3.65925 15.3632 4.05025L13.2422 6.17125C12.8512 6.56225 12.2192 6.56225 11.8282 6.17125C10.2682 4.61125 7.73025 4.61125 6.17125 6.17125C4.61225 7.73125 4.61125 10.2692 6.17125 11.8282C6.35925 12.0162 6.46425 12.2702 6.46425 12.5352C6.46425 12.8002 6.35925 13.0552 6.17125 13.2432L3.96325 15.4502C3.76825 15.6452 3.51225 15.7432 3.25625 15.7432C3.00025 15.7432 2.74425 15.6452 2.54925 15.4502C2.15825 15.0592 2.15825 14.4272 2.54925 14.0362L4.10925 12.4762C3.57425 11.7252 3.25525 10.8742 3.10825 9.99925H1.00025C0.44825 9.99925 0.000249989 9.55125 0.000249989 8.99925V9.00025ZM23.7073 0.29325C23.3162 -0.09775 22.6842 -0.09775 22.2932 0.29325L0.29325 22.2932C-0.09775 22.6842 -0.09775 23.3162 0.29325 23.7072C0.48825 23.9022 0.74425 24.0002 1.00025 24.0002C1.25625 24.0002 1.51225 23.9022 1.70725 23.7072L23.7073 1.70725C24.0983 1.31625 24.0983 0.68425 23.7073 0.29325ZM23.4242 11.2472C23.7442 11.0972 23.9622 10.7892 23.9963 10.4362C24.0303 10.0842 23.8752 9.74025 23.5882 9.53225C22.5712 8.79325 21.3853 8.29825 20.1593 8.10025C19.6182 8.01025 19.1003 8.38325 19.0133 8.92925C18.9253 9.47425 19.2962 9.98725 19.8422 10.0752C20.2522 10.1412 20.6553 10.2512 21.0452 10.4032C19.3953 11.7632 18.3923 13.8132 18.3923 16.0002C18.3923 18.1872 19.3953 20.2382 21.0473 21.5982C20.3643 21.8642 19.6373 22.0002 18.8923 22.0002C15.9253 22.0002 13.3722 19.7902 12.9532 16.8582C12.8752 16.3112 12.3672 15.9342 11.8222 16.0092C11.2752 16.0872 10.8952 16.5942 10.9742 17.1412C11.5332 21.0512 14.9382 23.9992 18.8932 23.9992C20.5882 23.9992 22.2132 23.4692 23.5903 22.4662C23.8762 22.2582 24.0312 21.9132 23.9972 21.5622C23.9632 21.2092 23.7462 20.9022 23.4252 20.7512C21.5832 19.8902 20.3923 18.0242 20.3923 15.9992C20.3923 13.9742 21.5822 12.1082 23.4252 11.2462L23.4242 11.2472Z" />
</svg>
